<?xml version="1.0" encoding="utf-8"?>
<!-- Generator: Adobe Illustrator 16.0.0, SVG Export Plug-In . SVG Version: 6.00 Build 0)  -->
<!DOCTYPE svg PUBLIC "-//W3C//DTD SVG 1.1//EN" "http://www.w3.org/Graphics/SVG/1.1/DTD/svg11.dtd">
<svg version="1.1" xmlns="http://www.w3.org/2000/svg" xmlns:xlink="http://www.w3.org/1999/xlink" x="0px" y="0px"
	 width="59.444px" height="13.682px" viewBox="0 0 59.444 13.682" enable-background="new 0 0 59.444 13.682" xml:space="preserve">
<g id="Reference" display="none">
</g>
<g id="Art">
	<g>
		<path d="M11.003,3.597c0.981,2.383,1.472,4.08,1.472,5.086c0,0.514-0.198,1.099-0.598,1.755c-0.313-2.825-1.285-5.396-2.919-7.714
			L9.73,1C9.936,1.177,10.36,2.042,11.003,3.597z M20.632,1.412c0.112,0,0.168,0.212,0.168,0.637c0,0.686-0.276,1.283-0.829,1.793
			c-0.283,0.257-0.579,0.445-0.888,0.562c-0.309,0.118-0.639,0.176-0.988,0.176c0.367,0.58,0.668,1.28,0.899,2.103
			c0.235,0.846,0.353,1.61,0.353,2.296c0,0.411-0.133,0.921-0.398,1.53c-0.472-2.94-1.586-5.458-3.343-7.555l0.598-1.344
			c0.395,1.025,1.065,1.537,2.012,1.537C19.467,3.147,20.272,2.568,20.632,1.412z M28.514,1.392
			c0.052,0.052,0.078,0.136,0.078,0.252c0,0.398-0.138,0.859-0.412,1.381c-0.309,0.597-0.643,0.895-1.003,0.895
			c-0.398,0-0.737-0.214-1.016-0.643c-0.249,0.64-0.718,0.958-1.408,0.958h-0.09l-0.096-0.007c0.273,0.429,0.516,1.084,0.727,1.967
			c0.188,0.824,0.283,1.521,0.283,2.096c0,0.455-0.051,0.832-0.149,1.132c-0.042,0.129-0.104,0.276-0.184,0.44
			c-0.078,0.165-0.185,0.357-0.317,0.575c0-2.849-0.868-5.461-2.604-7.83l0.643-1.427c0.043,0.201,0.199,0.475,0.469,0.822
			c0.426,0.545,0.926,0.816,1.505,0.816c0.78,0,1.28-0.397,1.498-1.195c0.018-0.068,0.056-0.189,0.116-0.36l0.25,0.855
			c0.125,0.291,0.357,0.437,0.701,0.437C27.839,2.556,28.175,2.169,28.514,1.392z M42.682,8.689
			c-0.046,0.248-0.142,0.479-0.286,0.692c-0.144,0.213-0.32,0.398-0.533,0.556c-0.212,0.157-0.449,0.278-0.713,0.368
			c-0.266,0.088-0.537,0.132-0.82,0.132c-0.22,0-0.422-0.034-0.608-0.103c-0.186-0.069-0.347-0.166-0.481-0.292
			c-0.135-0.127-0.24-0.276-0.318-0.447c-0.077-0.172-0.115-0.359-0.115-0.565c0-0.364,0.106-0.753,0.32-1.164
			c0.216-0.412,0.517-0.851,0.908-1.318c0.23-0.273,0.388-0.415,0.469-0.424c-0.21-0.047-0.415-0.127-0.614-0.237
			c-0.2-0.112-0.376-0.243-0.527-0.393c-0.151-0.15-0.273-0.313-0.362-0.492c-0.09-0.178-0.137-0.36-0.137-0.549
			c0-0.845,0.629-1.738,1.885-2.681c0.446-0.34,0.714-0.509,0.803-0.509l-0.108,1.388h-0.019c-0.146,0-0.496,0.195-1.05,0.584
			C39.821,3.626,39.545,3.881,39.545,4c0,0.138,0.657,0.463,1.974,0.977v0.687l-0.122,0.578c-1.316,1.184-1.975,1.859-1.975,2.03
			c0,0.021,0.037,0.091,0.111,0.206c0.273,0.428,0.751,0.643,1.433,0.643c0.146,0,0.312-0.013,0.498-0.035
			c0.187-0.024,0.365-0.057,0.537-0.097c0.171-0.041,0.321-0.088,0.449-0.142C42.579,8.792,42.656,8.741,42.682,8.689z
			 M50.146,8.007c0,0.356-0.055,0.686-0.164,0.988c-0.109,0.302-0.262,0.563-0.456,0.784C49.329,10,49.097,10.173,48.824,10.3
			c-0.272,0.126-0.573,0.189-0.903,0.189c-0.279,0-0.531-0.05-0.762-0.151c-0.229-0.101-0.428-0.239-0.594-0.418
			c-0.168-0.177-0.296-0.393-0.387-0.643c-0.09-0.251-0.134-0.525-0.134-0.826c0-1.238,0.316-2.275,0.95-3.111
			c0.214-0.282,0.408-0.496,0.582-0.638c0.175-0.141,0.335-0.209,0.485-0.205h0.045l0.109,0.013
			c0.295,0.018,0.562,0.119,0.801,0.303c0.237,0.185,0.438,0.433,0.604,0.742c0.164,0.312,0.293,0.676,0.385,1.093
			C50.099,7.065,50.146,7.52,50.146,8.007z M49.728,8.065c0-0.42-0.182-0.881-0.547-1.383c-0.381-0.531-0.777-0.796-1.188-0.796
			c-0.33,0-0.68,0.303-1.048,0.912c-0.348,0.565-0.521,1.036-0.521,1.408c0,0.613,0.476,0.919,1.427,0.919
			c0.278,0,0.532-0.023,0.762-0.071c0.229-0.047,0.428-0.116,0.594-0.208c0.167-0.093,0.296-0.205,0.387-0.338
			S49.728,8.229,49.728,8.065z M58.444,9.146l-0.655,1.292c-1.316-1.89-1.974-4.021-1.974-6.39c0-0.164,0.003-0.325,0.009-0.489
			c0.007-0.163,0.014-0.325,0.023-0.487c-0.464,0.3-0.943,0.449-1.44,0.449c-0.755,0-1.396-0.276-1.923-0.83V1.148
			c0.425,0.363,0.791,0.595,1.101,0.694c0.27,0.099,0.7,0.148,1.293,0.148c0.607,0,1.173-0.172,1.696-0.515
			c-0.009,0.081-0.017,0.173-0.022,0.276c-0.007,0.103-0.01,0.218-0.01,0.347c0,0.99,0.094,2.016,0.282,3.079
			c0.228,1.256,0.537,2.237,0.933,2.944c0.02,0.03,0.089,0.13,0.201,0.299C58.073,8.592,58.235,8.833,58.444,9.146z"/>
		<path d="M33.118,9.942c0.397,0,0.598,0.19,0.598,0.572l-0.049,0.219l-0.132,0.176l-0.187,0.12l-0.212,0.044
			c-0.377,0-0.565-0.164-0.565-0.494c0-0.167,0.051-0.314,0.153-0.444C32.828,10.007,32.959,9.942,33.118,9.942z"/>
		<polygon points="7.621,1.939 1.708,12.682 1,12.682 6.966,1.939 		"/>
		<path d="M2.003,3.192c0.395,0,0.591,0.213,0.591,0.637c0,0.377-0.196,0.565-0.591,0.565L1.784,4.343L1.607,4.201L1.488,3.999
			L1.444,3.778C1.444,3.388,1.631,3.192,2.003,3.192z"/>
		<path d="M6.562,10.47c0.397,0,0.598,0.19,0.598,0.572L7.11,11.261l-0.132,0.176l-0.187,0.12L6.58,11.601
			c-0.377,0-0.565-0.164-0.565-0.494c0-0.167,0.051-0.314,0.153-0.444C6.271,10.534,6.402,10.47,6.562,10.47z"/>
	</g>
</g>
</svg>
